HIERARCHY
ROOT hip
{
	OFFSET 0.000000 0.000000 0.000000
	CHANNELS 6 Xposition Yposition Zposition Xrotation Zrotation Yrotation 
	JOINT abdomen
	{
		OFFSET 0.000000 3.422050 0.000000
		CHANNELS 3 Xrotation Zrotation Yrotation 
		JOINT chest
		{
			OFFSET 0.000000 8.486693 -0.684411
			CHANNELS 3 Xrotation Zrotation Yrotation 
			JOINT neck
			{
				OFFSET 0.000000 10.266162 -0.273764
				CHANNELS 3 Xrotation Zrotation Yrotation 
				JOINT head
				{
					OFFSET 0.000000 3.148285 0.000000
					CHANNELS 3 Xrotation Zrotation Yrotation 
					End Site
					{
						OFFSET 0.000000 3.148289 0.000000
					}
				}
			}
			JOINT lCollar
			{
				OFFSET 3.422053 6.707223 -0.821293
				CHANNELS 3 Yrotation Zrotation Xrotation 
				JOINT lShldr
				{
					OFFSET 3.285171 0.000000 0.000000
					CHANNELS 3 Zrotation Yrotation Xrotation 
					JOINT lForeArm
					{
						OFFSET 10.129278 0.000000 0.000000
						CHANNELS 3 Yrotation Zrotation Xrotation 
						JOINT lHand
						{
							OFFSET 8.486692 0.000000 0.000000
							CHANNELS 3 Zrotation Yrotation Xrotation 
							End Site
							{
								OFFSET 4.106464 0.000000 0.000000
							}
						}
					}
				}
			}
			JOINT rCollar
			{
				OFFSET -3.558935 6.707223 -0.821293
				CHANNELS 3 Yrotation Zrotation Xrotation 
				JOINT rShldr
				{
					OFFSET -3.148289 0.000000 0.000000
					CHANNELS 3 Zrotation Yrotation Xrotation 
					JOINT rForeArm
					{
						OFFSET -10.266159 0.000000 0.000000
						CHANNELS 3 Yrotation Zrotation Xrotation 
						JOINT rHand
						{
							OFFSET -8.349810 0.000000 0.000000
							CHANNELS 3 Zrotation Yrotation Xrotation 
							End Site
							{
								OFFSET -4.106464 0.000000 0.000000
							}
						}
					}
				}
			}
		}
	}
	JOINT lThigh
	{
		OFFSET 5.338403 -1.642589 1.368821
		CHANNELS 3 Xrotation Zrotation Yrotation 
		JOINT lShin
		{
			OFFSET -2.053232 -20.121670 0.000000
			CHANNELS 3 Xrotation Zrotation Yrotation 
			JOINT lFoot
			{
				OFFSET 0.000000 -19.300380 -1.231939
				CHANNELS 3 Xrotation Yrotation Zrotation 
				End Site
				{
					OFFSET 0.000000 -2.463878 4.653993
				}
			}
		}
	}
	JOINT rThigh
	{
		OFFSET -5.338403 -1.642589 1.368821
		CHANNELS 3 Xrotation Zrotation Yrotation 
		JOINT rShin
		{
			OFFSET 2.053232 -20.121670 0.000000
			CHANNELS 3 Xrotation Zrotation Yrotation 
			JOINT rFoot
			{
				OFFSET 0.000000 -19.300380 -1.231939
				CHANNELS 3 Xrotation Yrotation Zrotation 
				End Site
				{
					OFFSET 0.000000 -2.463878 4.653993
				}
			}
		}
	}
}
MOTION
Frames: 19
Frame Time: 0.033264
0.000000 6.459362 0.000000 -90.001343 -0.002114 46.999653 30.589304 -0.179651 -28.333553 30.665688 -0.834341 -20.733974 32.050617 -0.273781 11.282475 9.247802 -3.320671 10.340219 2.427744 -22.999823 0.556466 -15.650093 -3.280725 0.957749 -90.891876 -6.202446 -67.554939 -7.000325 0.000000 0.000000 1.630062 -19.800714 -5.389437 -28.545780 5.275657 -5.564641 169.593079 -54.492413 37.922649 6.996825 0.000000 0.000000 -17.390663 14.048954 -0.895770 15.212472 -6.428586 -0.433561 13.611595 2.328721 5.489282 -12.566605 -37.829811 -27.182966 111.313499 -4.870153 -0.576962 23.422083 -1.952469 -4.545708 
0.000000 6.459362 0.000000 -90.001343 -0.002114 46.999653 30.589304 -0.179651 -28.333553 30.665688 -0.834341 -20.733974 32.144463 -0.270800 11.278888 9.136028 -3.323397 10.218095 2.427744 -22.999823 0.556466 -15.650093 -3.280725 0.957749 -90.891876 -6.202443 -67.554939 -7.000325 0.000000 0.000000 1.630062 -19.800713 -5.389437 -28.545778 5.275657 -5.564641 169.593094 -54.492413 37.922649 6.996825 0.000000 0.000000 -17.390663 14.048954 -0.895770 15.212471 -6.428585 -0.433561 13.611595 2.328721 5.489282 -12.697976 -37.640114 -26.985231 111.313499 -4.870153 -0.576962 23.422083 -1.952469 -4.545708 
0.000000 6.459362 0.000000 -90.001343 -0.002114 46.999653 30.589304 -0.179651 -28.333553 30.665688 -0.834341 -20.733974 32.238312 -0.267813 11.275307 9.024261 -3.326360 10.095976 2.427744 -22.999823 0.556466 -15.650093 -3.280725 0.957749 -90.891876 -6.202443 -67.554939 -7.000325 0.000000 0.000000 1.630062 -19.800713 -5.389437 -28.545778 5.275657 -5.564641 169.593094 -54.492413 37.922649 6.996825 0.000000 0.000000 -17.390663 14.048954 -0.895770 15.212471 -6.428585 -0.433561 13.611595 2.328721 5.489282 -12.828201 -37.450035 -26.788517 111.313499 -4.870153 -0.576962 23.422083 -1.952469 -4.545708 
0.000000 6.459362 0.000000 -90.001343 -0.002114 46.999653 30.589304 -0.179651 -28.333553 30.665688 -0.834341 -20.733974 32.332146 -0.264821 11.271729 8.912503 -3.329562 9.973866 2.427744 -22.999823 0.556466 -15.650093 -3.280725 0.957749 -90.891876 -6.202443 -67.554939 -7.000325 0.000000 0.000000 1.630062 -19.800713 -5.389437 -28.545778 5.275657 -5.564641 169.593094 -54.492413 37.922649 6.996825 0.000000 0.000000 -17.390663 14.048954 -0.895770 15.212469 -6.428585 -0.433561 13.611595 2.328721 5.489282 -12.957287 -37.259590 -26.592827 111.313499 -4.870153 -0.576962 23.422083 -1.952469 -4.545708 
0.000000 6.459362 0.000000 -90.001343 -0.002114 46.999653 30.589304 -0.179651 -28.333553 30.665688 -0.834341 -20.733974 32.425980 -0.261824 11.268157 8.800753 -3.333000 9.851764 2.427744 -22.999823 0.556466 -15.650093 -3.280725 0.957749 -90.891876 -6.202443 -67.554939 -7.000325 0.000000 0.000000 1.630062 -19.800713 -5.389437 -28.545778 5.275657 -5.564641 169.593094 -54.492413 37.922649 6.996825 0.000000 0.000000 -17.390663 14.048954 -0.895770 15.212469 -6.428585 -0.433561 13.611595 2.328721 5.489282 -13.085239 -37.068783 -26.398151 111.313499 -4.870153 -0.576962 23.422083 -1.952469 -4.545708 
0.000000 6.459362 0.000000 -90.001343 -0.002114 46.999653 30.589304 -0.179651 -28.333553 30.665688 -0.834341 -20.733974 32.519810 -0.258819 11.264590 8.689013 -3.336677 9.729671 2.427744 -22.999823 0.556466 -15.650093 -3.280725 0.957749 -90.891876 -6.202443 -67.554939 -7.000325 0.000000 0.000000 1.630062 -19.800713 -5.389437 -28.545780 5.275657 -5.564641 169.593094 -54.492413 37.922649 6.996825 0.000000 0.000000 -17.390663 14.048954 -0.895770 15.212469 -6.428585 -0.433561 13.611595 2.328721 5.489282 -13.212072 -36.877613 -26.204485 111.313499 -4.870153 -0.576962 23.422083 -1.952469 -4.545708 
0.000000 6.459362 0.000000 -90.001343 -0.002114 46.999653 30.589304 -0.179651 -28.333553 30.665688 -0.834341 -20.733974 32.613632 -0.255810 11.261027 8.577285 -3.340592 9.607590 2.427744 -22.999823 0.556466 -15.650093 -3.280725 0.957749 -90.891876 -6.202443 -67.554939 -7.000325 0.000000 0.000000 1.630062 -19.800711 -5.389436 -28.545776 5.275657 -5.564641 169.593094 -54.492413 37.922649 6.996825 0.000000 0.000000 -17.390663 14.048954 -0.895770 15.212469 -6.428585 -0.433561 13.611595 2.328721 5.489282 -13.337790 -36.686092 -26.011816 111.313499 -4.870153 -0.576962 23.422083 -1.952469 -4.545708 
0.000000 6.459362 0.000000 -90.001343 -0.002114 46.999653 30.589304 -0.179651 -28.333553 30.665688 -0.834341 -20.733974 32.707447 -0.252795 11.257471 8.465567 -3.344743 9.485518 2.427744 -22.999823 0.556466 -15.650093 -3.280725 0.957749 -90.891876 -6.202443 -67.554939 -7.000325 0.000000 0.000000 1.630062 -19.800713 -5.389437 -28.545778 5.275657 -5.564641 169.593094 -54.492413 37.922649 6.996825 0.000000 0.000000 -17.390663 14.048954 -0.895770 15.212469 -6.428585 -0.433561 13.611595 2.328721 5.489282 -13.462404 -36.494228 -25.820147 111.313499 -4.870153 -0.576962 23.422083 -1.952469 -4.545708 
0.000000 6.459362 0.000000 -90.001343 -0.002114 46.999653 30.589304 -0.179651 -28.333553 30.665688 -0.834341 -20.733974 32.801258 -0.249774 11.253919 8.353863 -3.349133 9.363461 2.427744 -22.999823 0.556466 -15.650093 -3.280725 0.957749 -90.891876 -6.202443 -67.554939 -7.000325 0.000000 0.000000 1.630062 -19.800713 -5.389437 -28.545778 5.275657 -5.564641 169.593094 -54.492413 37.922649 6.996825 0.000000 0.000000 -17.390663 14.048954 -0.895770 15.212469 -6.428585 -0.433561 13.611595 2.328721 5.489282 -13.585916 -36.302017 -25.629444 111.313499 -4.870153 -0.576962 23.422083 -1.952469 -4.545708 
0.000000 6.459362 0.000000 -90.001343 -0.002114 46.999653 30.589304 -0.179651 -28.333553 30.665688 -0.834341 -20.733974 32.895065 -0.246747 11.250372 8.242172 -3.353759 9.241414 2.427744 -22.999823 0.556466 -15.650093 -3.280725 0.957749 -90.891876 -6.202443 -67.554939 -7.000325 0.000000 0.000000 1.630062 -19.800713 -5.389437 -28.545778 5.275657 -5.564641 169.593094 -54.492413 37.922649 6.996825 0.000000 0.000000 -17.390663 14.048954 -0.895770 15.212471 -6.428585 -0.433561 13.611595 2.328721 5.489282 -13.708340 -36.109470 -25.439728 111.313499 -4.870153 -0.576962 23.422083 -1.952469 -4.545708 
0.000000 6.459362 0.000000 -90.001343 -0.002114 46.999653 30.589304 -0.179651 -28.333553 30.665688 -0.834341 -20.733974 32.988873 -0.243716 11.246831 8.130499 -3.358623 9.119385 2.427744 -22.999823 0.556466 -15.650093 -3.280725 0.957749 -90.891876 -6.202443 -67.554939 -7.000325 0.000000 0.000000 1.630062 -19.800711 -5.389436 -28.545780 5.275657 -5.564641 169.593094 -54.492413 37.922649 6.996825 0.000000 0.000000 -17.390663 14.048954 -0.895770 15.212471 -6.428585 -0.433561 13.611595 2.328721 5.489282 -13.829675 -35.916603 -25.250978 111.313499 -4.870153 -0.576962 23.422083 -1.952469 -4.545708 
0.000000 6.459362 0.000000 -90.001343 -0.002114 46.999653 30.589304 -0.179651 -28.333553 30.665688 -0.834341 -20.733974 33.082672 -0.240678 11.243295 8.018838 -3.363724 8.997369 2.427744 -22.999823 0.556466 -15.650093 -3.280725 0.957749 -90.891876 -6.202443 -67.554939 -7.000325 0.000000 0.000000 1.630062 -19.800713 -5.389437 -28.545776 5.275657 -5.564641 169.593094 -54.492413 37.922649 6.996825 0.000000 0.000000 -17.390663 14.048954 -0.895770 15.212471 -6.428585 -0.433561 13.611595 2.328721 5.489282 -13.949934 -35.723385 -25.063175 111.313499 -4.870153 -0.576962 23.422083 -1.952469 -4.545708 
0.000000 6.459362 0.000000 -90.001343 -0.002114 46.999653 30.589304 -0.179651 -28.333553 30.665688 -0.834341 -20.733974 33.176453 -0.237634 11.239763 7.907193 -3.369062 8.875370 2.427744 -22.999823 0.556466 -15.650093 -3.280725 0.957749 -90.891876 -6.202443 -67.554939 -7.000325 0.000000 0.000000 1.630062 -19.800713 -5.389437 -28.545778 5.275657 -5.564641 169.593094 -54.492413 37.922649 6.996825 0.000000 0.000000 -17.390663 14.048954 -0.895770 15.212471 -6.428585 -0.433561 13.611595 2.328721 5.489282 -14.069131 -35.529877 -24.876333 111.313499 -4.870153 -0.576962 23.422083 -1.952469 -4.545708 
0.000000 6.459362 0.000000 -90.001343 -0.002114 46.999653 30.589304 -0.179651 -28.333553 30.665688 -0.834341 -20.733974 33.270241 -0.234586 11.236238 7.795568 -3.374637 8.753388 2.427744 -22.999823 0.556466 -15.650093 -3.280725 0.957749 -90.891876 -6.202443 -67.554939 -7.000325 0.000000 0.000000 1.630062 -19.800713 -5.389437 -28.545778 5.275657 -5.564641 169.593094 -54.492413 37.922649 6.996825 0.000000 0.000000 -17.390663 14.048954 -0.895770 15.212471 -6.428585 -0.433561 13.611595 2.328721 5.489282 -14.187263 -35.336033 -24.690430 111.313499 -4.870153 -0.576962 23.422083 -1.952469 -4.545708 
0.000000 6.459362 0.000000 -90.001343 -0.002114 46.999653 30.589304 -0.179651 -28.333553 30.665688 -0.834341 -20.733974 33.364021 -0.231531 11.232718 7.683961 -3.380448 8.631426 2.427744 -22.999823 0.556466 -15.650093 -3.280725 0.957749 -90.891876 -6.202443 -67.554939 -7.000325 0.000000 0.000000 1.630062 -19.800711 -5.389436 -28.545778 5.275657 -5.564641 169.593094 -54.492413 37.922649 6.996825 0.000000 0.000000 -17.390663 14.048954 -0.895770 15.212471 -6.428585 -0.433561 13.611595 2.328721 5.489282 -14.304343 -35.141891 -24.505461 111.313499 -4.870153 -0.576962 23.422083 -1.952469 -4.545708 
0.000000 6.459362 0.000000 -90.001343 -0.002114 46.999653 30.589304 -0.179651 -28.333553 30.665688 -0.834341 -20.733974 33.457794 -0.228471 11.229202 7.572375 -3.386497 8.509481 2.427744 -22.999823 0.556466 -15.650093 -3.280725 0.957749 -90.891876 -6.202443 -67.554939 -7.000325 0.000000 0.000000 1.630062 -19.800713 -5.389437 -28.545780 5.275657 -5.564641 169.593094 -54.492413 37.922649 6.996825 0.000000 0.000000 -17.390663 14.048954 -0.895770 15.212471 -6.428585 -0.433561 13.611595 2.328721 5.489282 -14.420379 -34.947453 -24.321428 111.313499 -4.870153 -0.576962 23.422083 -1.952469 -4.545708 
0.000000 6.459362 0.000000 -90.001343 -0.002114 46.999653 30.589304 -0.179651 -28.333553 30.665688 -0.834341 -20.733974 33.551559 -0.225405 11.225691 7.460808 -3.392782 8.387558 2.427744 -22.999823 0.556466 -15.650093 -3.280725 0.957749 -90.891876 -6.202443 -67.554939 -7.000325 0.000000 0.000000 1.630062 -19.800713 -5.389437 -28.545776 5.275657 -5.564641 169.593094 -54.492413 37.922649 6.996825 0.000000 0.000000 -17.390663 14.048954 -0.895770 15.212471 -6.428585 -0.433561 13.611595 2.328721 5.489282 -14.535370 -34.752693 -24.138300 111.313499 -4.870153 -0.576962 23.422083 -1.952469 -4.545708 
0.000000 6.459362 0.000000 -90.001343 -0.002114 46.999653 30.589304 -0.179651 -28.333553 30.665688 -0.834341 -20.733974 33.645321 -0.222334 11.222185 7.349261 -3.399303 8.265652 2.427744 -22.999823 0.556466 -15.650093 -3.280725 0.957749 -90.891876 -6.202443 -67.554939 -7.000325 0.000000 0.000000 1.630062 -19.800713 -5.389437 -28.545778 5.275657 -5.564641 169.593094 -54.492413 37.922649 6.996825 0.000000 0.000000 -17.390663 14.048954 -0.895770 15.212471 -6.428585 -0.433561 13.611595 2.328721 5.489282 -14.649339 -34.557663 -23.956095 111.313499 -4.870153 -0.576962 23.422083 -1.952469 -4.545708 
0.000000 6.459362 0.000000 -90.001343 -0.002114 46.999653 30.589304 -0.179651 -28.333553 30.665688 -0.834341 -20.733974 33.739071 -0.219257 11.218686 7.237740 -3.406061 8.143772 2.427744 -22.999823 0.556466 -15.650093 -3.280725 0.957749 -90.891876 -6.202443 -67.554939 -7.000325 0.000000 0.000000 1.630062 -19.800711 -5.389436 -28.545778 5.275657 -5.564641 169.593094 -54.492413 37.922649 6.996825 0.000000 0.000000 -17.390663 14.048954 -0.895770 15.212471 -6.428585 -0.433561 13.611595 2.328721 5.489282 -14.762281 -34.362335 -23.774790 111.313499 -4.870153 -0.576962 23.422083 -1.952469 -4.545708 
